HIERARCHY
ROOT root
{
	OFFSET 0.000000 0.000000 0.000000
	CHANNELS 6 Xposition Yposition Zposition Zrotation Yrotation Xrotation
	JOINT lhip
	{
		OFFSET 0.058581 -0.082280 -0.017664
		CHANNELS 3 Zrotation Yrotation Xrotation
		JOINT lknee
		{
			OFFSET 0.043451 -0.386469 0.008037
			CHANNELS 3 Zrotation Yrotation Xrotation
			JOINT lankle
			{
				OFFSET -0.014790 -0.426874 -0.037428
				CHANNELS 3 Zrotation Yrotation Xrotation
				JOINT ltoe
				{
					OFFSET 0.041054 -0.060286 0.122042
					CHANNELS 3 Zrotation Yrotation Xrotation
					End Site
					{
						OFFSET 0.000000 0.000000 0.000000
					}
				}
			}
		}
	}
	JOINT rhip
	{
		OFFSET -0.060310 -0.090513 -0.013543
		CHANNELS 3 Zrotation Yrotation Xrotation
		JOINT rknee
		{
			OFFSET -0.043257 -0.383688 -0.004843
			CHANNELS 3 Zrotation Yrotation Xrotation
			JOINT rankle
			{
				OFFSET 0.019056 -0.420046 -0.034562
				CHANNELS 3 Zrotation Yrotation Xrotation
				JOINT rtoe
				{
					OFFSET -0.034840 -0.062106 0.130323
					CHANNELS 3 Zrotation Yrotation Xrotation
					End Site
					{
						OFFSET 0.000000 0.000000 0.000000
					}
				}
			}
		}
	}
	JOINT lowerback
	{
		OFFSET 0.004439 0.124404 -0.038385
		CHANNELS 3 Zrotation Yrotation Xrotation
		JOINT upperback
		{
			OFFSET 0.004488 0.137956 0.026820
			CHANNELS 3 Zrotation Yrotation Xrotation
			JOINT chest
			{
				OFFSET -0.002265 0.056032 0.002855
				CHANNELS 3 Zrotation Yrotation Xrotation
				JOINT lowerneck
				{
					OFFSET -0.013390 0.211636 -0.033468
					CHANNELS 3 Zrotation Yrotation Xrotation
					JOINT upperneck
					{
						OFFSET 0.010113 0.088937 0.050410
						CHANNELS 3 Zrotation Yrotation Xrotation
						End Site
						{
							OFFSET 0.000000 0.000000 0.000000
						}
					}
				}
				JOINT lclavicle
				{
					OFFSET 0.071702 0.114000 -0.018898
					CHANNELS 3 Zrotation Yrotation Xrotation
					JOINT lshoulder
					{
						OFFSET 0.122921 0.045205 -0.019046
						CHANNELS 3 Zrotation Yrotation Xrotation
						JOINT lelbow
						{
							OFFSET 0.255332 -0.015649 -0.022946
							CHANNELS 3 Zrotation Yrotation Xrotation
							JOINT lwrist
							{
								OFFSET 0.265709 0.012698 -0.007375
								CHANNELS 3 Zrotation Yrotation Xrotation
								End Site
								{
									OFFSET 0.000000 0.000000 0.000000
								}
							}
						}
					}
				}
				JOINT rclavicle
				{
					OFFSET -0.082954 0.112472 -0.023707
					CHANNELS 3 Zrotation Yrotation Xrotation
					JOINT rshoulder
					{
						OFFSET -0.113228 0.046853 -0.008472
						CHANNELS 3 Zrotation Yrotation Xrotation
						JOINT relbow
						{
							OFFSET -0.260127 -0.014369 -0.031269
							CHANNELS 3 Zrotation Yrotation Xrotation
							JOINT rwrist
							{
								OFFSET -0.269108 0.006794 -0.006027
								CHANNELS 3 Zrotation Yrotation Xrotation
								End Site
								{
									OFFSET 0.000000 0.000000 0.000000
								}
							}
						}
					}
				}
			}
		}
	}
}
MOTION
Frames: 17
Frame Time: 0.033333
1.232508 0.713295 0.984395 -91.951410 -0.455467 82.677329 -1.155117 -1.253179 3.360763 -0.570135 -9.103658 7.795595 3.327134 11.465095 -14.080573 0.000000 -0.000000 0.000000 1.047951 -2.181520 2.736462 -2.777409 1.155268 9.701162 0.652467 -9.955844 -14.083186 0.000000 -0.000000 0.000000 -1.436740 3.418343 8.596913 -0.453952 -2.267585 4.813459 -1.285564 0.358314 -2.800248 1.609668 -0.471209 -4.650616 4.957271 -0.702092 5.905415 -28.077719 -5.475314 -0.049689 -51.701135 -7.001300 14.650440 -0.547199 -22.106127 7.546531 -6.204166 -3.490811 5.417461 26.706383 7.442909 1.536736 56.824050 2.647982 19.465223 -2.158366 28.374353 12.275125 5.023676 3.578236 10.820231 
1.232678 0.713310 0.984378 -92.058642 -0.501482 82.673881 -1.178926 -1.205808 3.278989 -0.656794 -9.044492 7.979189 3.504134 11.445495 -14.139408 0.000000 -0.000000 0.000000 0.990501 -2.095232 2.627069 -2.722682 1.211548 9.853745 0.648342 -9.997604 -14.143691 0.000000 -0.000000 0.000000 -1.528987 3.444905 8.656053 -0.416302 -2.288456 4.996288 -1.283381 0.290102 -2.824090 1.659660 -0.453890 -4.925604 4.969818 -0.706832 5.862452 -27.921329 -5.412182 -0.010914 -51.959066 -7.039054 14.649120 -0.289631 -22.212617 7.486419 -6.259066 -3.377640 5.408209 26.654805 7.504522 1.498174 56.967646 2.713229 19.520647 -2.545356 28.486808 12.088478 5.105480 3.405063 10.700531 
1.233011 0.713158 0.984306 -92.098182 -0.467599 82.772934 -1.136783 -1.345491 2.922609 -0.779897 -8.990787 8.453615 3.543588 11.508433 -14.310772 0.000000 -0.000000 0.000000 0.982436 -2.086122 2.378964 -2.637535 1.253538 10.104143 0.603518 -9.976379 -14.300023 0.000000 -0.000000 0.000000 -1.517579 3.447906 8.700543 -0.380424 -2.370011 5.071896 -1.266551 0.240866 -2.828196 1.649120 -0.371593 -5.160716 4.922469 -0.698950 5.707123 -27.907601 -5.446522 -0.047103 -52.042698 -7.016359 14.511342 -0.124481 -22.146394 7.373646 -6.272325 -3.325427 5.585027 26.691596 7.543311 1.532151 56.835713 2.690720 19.496214 -2.668817 28.534429 12.486731 4.884730 3.618147 11.555934 
1.233287 0.713068 0.983942 -92.227719 -0.422501 82.839355 -1.069423 -1.464549 2.548349 -0.924072 -8.778981 9.048063 3.630989 11.560688 -14.591715 0.000000 -0.000000 0.000000 1.033702 -1.925809 2.165029 -2.587275 1.301372 10.330803 0.522429 -10.062344 -14.308539 0.000000 -0.000000 0.000000 -1.480840 3.443469 8.855976 -0.356375 -2.423121 5.076101 -1.271541 0.181070 -2.690251 1.742323 -0.092744 -5.510052 4.860635 -0.686891 5.267529 -27.726209 -5.464447 -0.136717 -52.206934 -7.052056 14.393844 -0.053575 -22.073075 7.071161 -6.311863 -3.313020 5.354073 26.607309 7.510222 1.423819 56.867968 2.879413 19.347160 -2.877115 28.850633 12.064864 4.514971 3.332856 11.253293 
1.233693 0.713328 0.983554 -92.401912 -0.373043 82.938712 -0.948067 -1.416803 2.148907 -1.104091 -8.726503 9.579160 3.625434 11.680349 -14.730997 0.000000 -0.000000 0.000000 1.150881 -1.789265 1.873044 -2.585274 1.409979 10.570634 0.487930 -10.114855 -14.460224 0.000000 -0.000000 0.000000 -1.447953 3.467669 9.116900 -0.358737 -2.373918 4.827234 -1.242281 0.153906 -2.561687 1.775916 -0.019789 -5.680361 4.898817 -0.656381 4.916999 -27.623034 -5.524608 -0.217015 -52.373659 -6.980952 14.363946 0.115848 -22.023932 7.036080 -6.189776 -3.344909 5.393608 26.497084 7.481948 1.290212 56.951934 2.920343 19.281088 -2.986413 29.007767 12.246508 4.398195 3.318831 11.502630 
1.233587 0.713146 0.983529 -92.548983 -0.307083 82.987398 -0.890674 -1.412915 1.913398 -1.189226 -8.656943 9.995039 3.642184 11.785504 -15.037014 0.000000 -0.000000 0.000000 1.228776 -1.814160 1.656412 -2.568872 1.577791 10.885807 0.387375 -10.130525 -14.647485 0.000000 -0.000000 0.000000 -1.400169 3.479735 9.274211 -0.322529 -2.369048 4.866557 -1.238362 0.107954 -2.517980 1.824538 0.049937 -6.050098 4.917110 -0.553762 4.717690 -27.686853 -5.549522 -0.291753 -52.280646 -6.926800 14.354848 0.122184 -22.122151 6.981011 -6.043345 -3.352518 5.432920 26.532849 7.469072 1.150587 56.783324 2.882580 19.275118 -3.010443 29.116167 12.243907 4.437343 3.099629 11.622193 
1.234006 0.712617 0.983620 -92.739265 -0.267875 83.202135 -0.796727 -1.531527 1.292166 -1.439053 -8.491170 10.762911 3.859592 11.852287 -15.341330 0.000000 -0.000000 0.000000 1.148851 -1.820282 1.019945 -2.346443 1.640696 11.580945 0.478013 -9.912642 -14.912741 0.000000 -0.000000 0.000000 -1.398554 3.496229 9.241525 -0.271397 -2.401770 5.046646 -1.225676 0.202966 -2.546102 1.798232 0.346844 -6.419234 5.020305 -0.578396 4.541396 -27.564898 -5.693788 -0.339086 -52.406209 -6.965144 14.195338 0.248432 -21.899442 6.751943 -6.300669 -3.515162 5.412016 26.491239 7.720650 1.420742 56.636149 2.819312 19.118359 -3.277274 29.003333 11.991209 4.404612 3.574308 11.569524 
1.233701 0.712674 0.982802 -92.904648 -0.245717 83.123184 -0.815145 -1.614351 1.056997 -1.544897 -8.306046 11.431599 3.860904 12.091380 -15.626506 0.000000 -0.000000 0.000000 1.248247 -1.504599 0.836127 -2.395377 1.582136 12.077079 0.329680 -10.077058 -15.223140 0.000000 -0.000000 0.000000 -1.466324 3.440230 10.000453 -0.335630 -2.309037 4.608072 -1.061655 0.230918 -2.438611 1.950431 0.288582 -7.012656 5.151556 -0.464611 4.317105 -27.417426 -5.727768 -0.323482 -52.594454 -6.880356 13.986274 0.338099 -22.101018 6.963341 -6.284778 -3.588852 5.070045 26.361656 7.551579 1.152619 56.655062 2.547320 18.937472 -3.243156 29.209107 12.395638 4.229877 3.682313 11.514327 
1.234281 0.712628 0.981966 -93.081059 -0.228754 83.218360 -0.673769 -1.723421 0.366997 -1.989241 -8.233448 12.522900 4.016634 12.316454 -16.112619 0.000000 -0.000000 0.000000 1.239444 -1.355074 0.094613 -2.234424 1.691510 13.208400 0.207778 -10.181392 -15.687270 0.000000 -0.000000 0.000000 -1.452458 3.405306 10.372603 -0.304032 -2.350172 4.480568 -1.047084 0.183406 -2.271664 2.049146 0.262625 -7.481158 4.999233 -0.419099 3.886970 -27.252174 -5.803794 -0.368751 -52.675030 -6.871892 14.010611 0.402701 -22.322499 6.755673 -5.956728 -3.544652 4.794743 26.253344 7.692784 1.090101 56.751465 2.719266 18.756252 -3.466998 29.018215 11.669819 4.298962 3.469140 10.821506 
1.235317 0.712440 0.980619 -93.505376 -0.188772 83.399089 -0.462844 -1.750903 -0.756269 -2.579956 -7.866330 14.314948 4.258944 12.514165 -16.835749 0.000000 -0.000000 0.000000 1.327603 -0.984424 -0.992650 -2.107059 1.846082 14.711973 0.042476 -10.232918 -16.301361 0.000000 -0.000000 0.000000 -1.298200 3.446771 11.193863 -0.303416 -2.202929 4.027542 -1.071483 0.081294 -2.177762 2.050893 0.681672 -8.072441 5.030251 -0.289499 3.174535 -27.152671 -5.942341 -0.432333 -52.839584 -6.716777 13.921926 0.781841 -22.715029 6.280176 -5.914715 -3.280556 4.448307 26.185671 7.952090 1.287190 56.751529 2.851005 18.574306 -4.059625 29.179760 10.993125 4.257273 3.270880 10.265532 
1.236166 0.712417 0.978804 -93.765463 -0.160876 83.478525 -0.365895 -2.074712 -1.787767 -3.114821 -7.543399 16.089084 4.493803 13.010588 -17.541000 0.000000 -0.000000 0.000000 1.303008 -0.577997 -1.958488 -1.823659 1.859213 16.282337 -0.258974 -10.487218 -17.047623 0.000000 -0.000000 0.000000 -1.273683 3.444602 12.129120 -0.330570 -2.181470 3.453483 -0.968474 0.081979 -1.915178 2.152544 0.616984 -8.898719 5.071736 -0.205070 2.727175 -27.069550 -6.029270 -0.392614 -53.174697 -6.727611 13.645393 1.270915 -23.027408 5.924082 -5.732248 -3.191272 3.917510 26.005025 8.037084 1.267473 56.895056 2.923611 18.271862 -4.446579 29.199334 10.904781 4.244640 3.294911 9.880530 
1.237572 0.711854 0.976690 -93.048627 0.133331 83.711908 0.143880 -2.652343 -3.700623 -3.900813 -7.191437 18.992613 4.676864 12.862498 -18.597520 0.000000 -0.000000 0.000000 1.368295 -1.001413 -3.157956 -1.456406 1.685543 18.030798 -0.461206 -10.711222 -17.774392 0.000000 -0.000000 0.000000 -1.057812 3.246393 12.689948 -0.084839 -2.786887 3.375660 -0.958716 -0.124312 -1.781665 2.399315 0.688364 -9.729569 5.021165 -0.268081 2.381608 -26.819272 -6.172084 -0.426179 -53.288097 -6.803756 13.361991 1.371059 -23.349948 5.472511 -5.614641 -3.113363 3.123312 25.802170 8.226756 1.033731 56.813598 2.974570 18.154712 -4.547179 29.284455 10.803370 4.456822 3.155562 9.630092 
1.238042 0.710759 0.973989 -93.295377 0.178674 83.809363 0.340708 -2.842456 -4.858150 -4.444493 -6.762427 20.974086 4.894115 13.107505 -19.475810 0.000000 -0.000000 0.000000 1.162875 -0.892828 -4.331549 -1.019317 1.657127 19.994794 -0.677950 -10.697463 -18.578919 0.000000 -0.000000 0.000000 -0.986387 3.240594 12.481434 0.031928 -2.963712 4.784603 -1.080206 -0.064677 -1.906875 2.591376 1.184972 -10.602928 4.895675 -0.658622 1.504427 -26.363561 -6.503608 -0.477966 -53.363282 -7.195912 12.928583 1.573811 -23.708764 4.751157 -5.957335 -3.180879 3.228773 25.760659 8.784449 1.027047 56.618806 3.432337 17.760736 -4.963807 29.177916 10.082646 4.360138 3.064455 9.763761 
1.239140 0.709935 0.970529 -93.646779 0.165027 84.033210 0.591139 -2.805414 -6.452964 -5.205736 -6.269040 23.439703 5.081142 13.323538 -20.435395 0.000000 -0.000000 0.000000 0.992340 -0.702663 -5.964600 -0.648705 1.631871 22.465082 -0.938513 -10.642009 -19.706514 0.000000 -0.000000 0.000000 -1.014493 3.283049 13.288247 0.059000 -2.906001 4.517970 -0.999126 -0.089131 -1.753315 2.580676 1.515950 -11.204767 4.952449 -0.654944 0.661835 -26.126679 -7.067262 -0.474917 -53.305020 -7.106313 12.719928 1.909341 -23.915408 4.067317 -5.794574 -3.149974 2.796627 25.766697 9.262426 1.179107 56.352397 3.497535 17.464439 -5.473851 29.483814 9.739917 4.471405 3.265389 9.615983 
1.240681 0.709521 0.965874 -93.916176 0.167363 84.145583 0.803170 -2.939223 -7.963095 -5.906111 -5.801649 25.900070 5.463282 13.806935 -21.431772 0.000000 -0.000000 0.000000 0.940519 -0.282960 -7.698389 -0.428098 1.483236 25.311407 -1.306497 -10.887149 -20.772966 0.000000 -0.000000 0.000000 -0.994601 3.314496 14.511979 0.058338 -2.864477 4.156064 -0.961718 -0.226177 -1.660041 2.659283 1.668151 -12.036078 5.094535 -0.714118 -0.007326 -25.792800 -7.410258 -0.479268 -53.419467 -7.213721 12.420331 2.469249 -24.247754 3.408833 -5.893676 -3.117041 2.429266 25.598667 9.723851 1.179813 56.348677 3.796508 17.174382 -5.983848 29.626766 9.339084 4.564626 3.343391 9.218665 
1.241643 0.708082 0.959229 -93.849122 0.536689 84.465903 1.443983 -2.579145 -10.232011 -5.564254 -4.201258 29.560360 5.148196 12.073883 -24.956080 0.000000 -0.000000 0.000000 1.384222 0.027029 -9.737933 -1.368232 0.064343 28.620469 1.073239 -8.970608 -24.829288 0.000000 -0.000000 0.000000 -0.662196 2.573639 16.534620 -0.170436 -1.835303 -0.890876 -0.700819 -0.097475 2.745890 4.144294 4.987774 -13.923481 2.732600 -4.675100 -0.545336 -23.682456 -5.573090 -0.777777 -55.106144 -10.475981 11.222130 -0.191160 -23.217056 12.439711 -3.999038 -2.036189 -5.147524 23.173417 7.013578 0.091783 59.243797 5.497023 18.202083 -7.107442 30.834386 14.291655 6.709456 -0.394070 5.899753 
1.243403 0.707556 0.952860 -94.132492 0.420405 84.950876 1.523606 -2.525814 -12.232758 -5.958902 -3.569997 32.104023 5.521618 12.184100 -26.003526 0.000000 -0.000000 0.000000 1.175300 0.529965 -12.005733 -1.249183 -0.280169 31.559837 0.903824 -9.199006 -26.336284 0.000000 -0.000000 0.000000 -0.863005 2.494478 17.867119 -0.210568 -1.701815 -1.890307 -0.638857 -0.152742 3.043850 4.237529 5.255720 -14.536389 2.870420 -4.596805 -0.909876 -23.236859 -6.048553 -0.697435 -55.342473 -10.590245 10.930319 0.280186 -23.394046 12.254162 -3.741304 -1.825269 -5.727737 22.476819 7.500455 0.096684 60.059572 5.931344 18.258218 -7.894762 31.024618 14.190520 6.295396 -0.325451 5.679750 
